<svg id="Layer_3" enable-background="new 0 0 64 64" height="512" viewBox="0 0 64 64" width="512" xmlns="http://www.w3.org/2000/svg"><path d="m29 16c0 1.654 1.346 3 3 3s3-1.346 3-3-1.346-3-3-3-3 1.346-3 3zm4 0c0 .551-.448 1-1 1s-1-.449-1-1 .448-1 1-1 1 .449 1 1z"/><path d="m38.294 13.708 1.412-1.416-.171-.17c-2.013-2.014-4.688-3.122-7.535-3.122s-5.522 1.108-7.534 3.121l-.172.171 1.412 1.416.173-.172c1.635-1.636 3.809-2.536 6.121-2.536s4.486.9 6.122 2.537z"/><path d="m42.707 9.293c-2.769-2.769-6.449-4.293-10.364-4.293h-.686c-3.915 0-7.596 1.524-10.364 4.293l1.414 1.414c2.391-2.391 5.569-3.707 8.95-3.707h.686c3.381 0 6.56 1.316 8.95 3.707z"/><path d="m31.071 3h1.857c4.293 0 8.329 1.672 11.364 4.707l1.414-1.414c-3.411-3.413-7.95-5.293-12.777-5.293h-1.857c-4.827 0-9.366 1.88-12.778 5.293l1.414 1.414c3.034-3.035 7.07-4.707 11.363-4.707z"/><path d="m51 43c1.654 0 3-1.346 3-3 0-1.302-.839-2.402-2-2.816v-3.184c0-2.757-2.243-5-5-5h-6c-2.757 0-5 2.243-5 5v3.184c-1.161.414-2 1.514-2 2.816 0 1.654 1.346 3 3 3h1.35c.285.803.734 1.527 1.31 2.132-3.22.627-5.66 3.467-5.66 6.868v4c0 .552.447 1 1 1h18c.553 0 1-.448 1-1v-4c0-3.401-2.44-6.241-5.66-6.868.576-.605 1.025-1.329 1.31-2.132zm0-2h-1v-2h1c.552 0 1 .449 1 1s-.448 1-1 1zm-5 6c0 1.103-.897 2-2 2s-2-.897-2-2zm-2-2c-2.206 0-4-1.794-4-4v-2h1c1.612 0 4.21-.876 5.747-2.374.329.531.755.996 1.253 1.37v3.004c0 2.206-1.794 4-4 4zm-6-11c0-1.654 1.346-3 3-3h6c1.654 0 3 1.346 3 3v2.829c-1.164-.413-2-1.525-2-2.829 0-.552-.447-1-1-1s-1 .448-1 1c0 1.391-3.025 3-5 3h-3zm-1 7c-.552 0-1-.449-1-1s.448-1 1-1h1v2zm15 11v3h-2v-4h-2v4h-8v-4h-2v4h-2v-3c0-2.418 1.726-4.439 4.01-4.9.055 2.159 1.818 3.9 3.99 3.9s3.935-1.741 3.99-3.9c2.284.461 4.01 2.482 4.01 4.9z"/><path d="m27 43c1.654 0 3-1.346 3-3 0-1.302-.839-2.402-2-2.816v-3.184c0-2.757-2.243-5-5-5h-6c-2.757 0-5 2.243-5 5v3.184c-1.161.414-2 1.514-2 2.816 0 1.654 1.346 3 3 3h1.35c.285.803.734 1.527 1.31 2.132-3.22.627-5.66 3.467-5.66 6.868v4c0 .552.447 1 1 1h18c.553 0 1-.448 1-1v-4c0-3.401-2.44-6.241-5.66-6.868.576-.605 1.025-1.329 1.31-2.132zm0-2h-1v-2h1c.552 0 1 .449 1 1s-.448 1-1 1zm-5 6c0 1.103-.897 2-2 2s-2-.897-2-2zm-2-2c-2.206 0-4-1.794-4-4v-2h1c1.612 0 4.21-.876 5.747-2.374.329.531.755.996 1.253 1.37v3.004c0 2.206-1.794 4-4 4zm-6-11c0-1.654 1.346-3 3-3h6c1.654 0 3 1.346 3 3v2.829c-1.164-.413-2-1.525-2-2.829 0-.552-.447-1-1-1s-1 .448-1 1c0 1.391-3.025 3-5 3h-3zm-1 7c-.552 0-1-.449-1-1s.448-1 1-1h1v2zm15 11v3h-2v-4h-2v4h-8v-4h-2v4h-2v-3c0-2.418 1.726-4.439 4.01-4.9.055 2.159 1.818 3.9 3.99 3.9s3.935-1.741 3.99-3.9c2.284.461 4.01 2.482 4.01 4.9z"/><path d="m44 25c-4.378 0-8.605 1.519-12 4.294-3.395-2.775-7.622-4.294-12-4.294-10.477 0-19 8.523-19 19s8.523 19 19 19c4.378 0 8.605-1.519 12-4.294 3.395 2.775 7.622 4.294 12 4.294 10.477 0 19-8.523 19-19s-8.523-19-19-19zm0 36c-4.176 0-8.2-1.546-11.332-4.355-.19-.17-.429-.255-.668-.255s-.478.085-.668.255c-3.132 2.809-7.156 4.355-11.332 4.355-9.374 0-17-7.626-17-17s7.626-17 17-17c4.176 0 8.2 1.546 11.332 4.355.381.341.955.341 1.336 0 3.132-2.809 7.156-4.355 11.332-4.355 9.374 0 17 7.626 17 17s-7.626 17-17 17z"/></svg>