<?xml version="1.0" encoding="iso-8859-1"?>
<!-- Generator: Adobe Illustrator 16.0.0, SVG Export Plug-In . SVG Version: 6.00 Build 0)  -->
<!DOCTYPE svg PUBLIC "-//W3C//DTD SVG 1.1//EN" "http://www.w3.org/Graphics/SVG/1.1/DTD/svg11.dtd">
<svg version="1.1" id="Capa_1" xmlns="http://www.w3.org/2000/svg" xmlns:xlink="http://www.w3.org/1999/xlink" x="0px" y="0px"
	 width="484.041px" height="484.041px" viewBox="0 0 484.041 484.041" style="enable-background:new 0 0 484.041 484.041;"
	 xml:space="preserve">
<g>
	<g>
		<path d="M305.411,242.721l-99.043-122.283c-2.374-2.931-5.943-4.633-9.714-4.633s-7.34,1.702-9.714,4.633L2.786,347.802
			c-3.032,3.743-3.643,8.897-1.568,13.247c2.075,4.351,6.464,7.119,11.282,7.119h198.087c6.903,0,12.5-5.597,12.5-12.5
			c0-6.902-5.597-12.5-12.5-12.5H38.709l83.585-103.196l44.701-19.212l19.548,36.498c2.177,4.062,6.411,6.599,11.02,6.599
			s8.844-2.536,11.02-6.599l19.547-36.498l41.979,18.097l15.875,19.599c4.346,5.365,12.216,6.191,17.581,1.848
			C308.93,255.957,309.756,248.084,305.411,242.721z M227.48,193.256c-5.963-2.571-12.901-0.147-15.968,5.577l-13.949,26.047
			l-13.95-26.047c-3.066-5.725-10.005-8.148-15.968-5.577l-11.544,4.977l40.553-50.068l39.578,48.864L227.48,193.256z"/>
		<path d="M481.256,347.869L373.092,214.325c-2.374-2.931-5.943-4.633-9.714-4.633c-3.771,0-7.341,1.702-9.715,4.633L245.5,347.867
			c-3.032,3.744-3.643,8.898-1.568,13.248c2.075,4.35,6.464,7.119,11.282,7.119l216.328,0.002c4.817,0,9.208-2.77,11.281-7.119
			C484.897,356.769,484.288,351.613,481.256,347.869z M363.378,242.052l20.046,24.75c-5.184-0.743-10.467,1.843-12.938,6.75
			l-7.108,14.116l-7.109-14.116c-2.471-4.907-7.753-7.494-12.938-6.75L363.378,242.052z M281.424,343.234l27.423-33.855
			l30.514-13.819l12.854,25.522c2.124,4.217,6.441,6.877,11.164,6.877c4.722,0,9.04-2.66,11.164-6.877l12.854-25.522l30.512,13.817
			l27.426,33.859L281.424,343.234z"/>
	</g>
</g>
<g>
</g>
<g>
</g>
<g>
</g>
<g>
</g>
<g>
</g>
<g>
</g>
<g>
</g>
<g>
</g>
<g>
</g>
<g>
</g>
<g>
</g>
<g>
</g>
<g>
</g>
<g>
</g>
<g>
</g>
</svg>
